<svg xmlns="http://www.w3.org/2000/svg" width="79.004" height="80.427" viewBox="0 0 79.004 80.427"><defs><style>.a{fill:#fff;}</style></defs><g transform="translate(1145.451 109.648)"><path class="a" d="M116.634,33.743c2.329.709,4.962-1.215,5.975-4.354s-.1-6.177-2.329-6.987c-2.329-.709-4.962,1.215-5.974,4.354S114.3,33.034,116.634,33.743Z" transform="translate(-1226.441 -113.215)"/><path class="a" d="M110.178,33.946c2.126-.608,3.038-3.747,2.025-6.987-1.114-3.24-3.747-5.266-5.873-4.557-2.126.608-3.038,3.747-2.025,6.987C105.419,32.528,108.052,34.655,110.178,33.946Z" transform="translate(-1226.567 -113.215)"/><path class="a" d="M104.7,34.656c-1.013-3.038-3.544-4.962-5.569-4.354s-2.937,3.544-1.924,6.582,3.544,4.962,5.569,4.354C104.9,40.63,105.711,37.694,104.7,34.656Z" transform="translate(-1226.657 -113.115)"/><path class="a" d="M113.616,34.5h-.506s-8.81,1.418-8.81,11.645c0,5.974,4.962,3.443,4.962,3.443s2.127-2.126,3.848-2.126h.405c1.722,0,3.848,2.126,3.848,2.126s4.962,2.633,4.962-3.342C122.426,35.918,113.616,34.5,113.616,34.5Z" transform="translate(-1226.562 -113.061)"/><path class="a" d="M127.573,30.5c-2.025-.709-4.557,1.215-5.468,4.152s0,5.873,2.025,6.582,4.557-1.215,5.468-4.152C130.509,34.046,129.6,31.109,127.573,30.5Z" transform="translate(-1226.342 -113.113)"/><path class="a" d="M156.909,72.405,156.6,72l-8.4,8.2.2.2,2.127,2.228c1.418,1.418,4.456.709,6.683-1.519,2.329-2.228,3.038-5.266,1.62-6.683Z" transform="translate(-1226.008 -112.587)"/><path class="a" d="M139.93,55.343A32.389,32.389,0,1,0,113.8,68.608a31.915,31.915,0,0,0,17.62-5.266l15.7,15.7,8.4-8.2ZM113.7,59.6a23.29,23.29,0,1,1,23.29-23.29A23.294,23.294,0,0,1,113.7,59.6Z" transform="translate(-1226.851 -113.448)"/></g></svg>