<svg xmlns="http://www.w3.org/2000/svg" width="141.833" height="33.278" viewBox="0 0 141.833 33.278"><defs><style>.a{fill:#fff;}</style></defs><path class="a" d="M114.988,26.791c.92.28,1.959-.48,2.359-1.719a2.136,2.136,0,0,0-.92-2.759c-.92-.28-1.959.48-2.359,1.719S114.068,26.512,114.988,26.791Z" transform="translate(-68.364 -13.356)"/><path class="a" d="M106.374,26.875c.84-.24,1.2-1.479.8-2.759-.44-1.28-1.479-2.079-2.319-1.8-.84.24-1.2,1.479-.8,2.759C104.495,26.315,105.534,27.155,106.374,26.875Z" transform="translate(-62.349 -13.359)"/><path class="a" d="M99.912,31.953c-.4-1.2-1.4-1.959-2.2-1.719s-1.16,1.4-.76,2.6,1.4,1.959,2.2,1.719C99.992,34.312,100.312,33.153,99.912,31.953Z" transform="translate(-58.087 -18.118)"/><path class="a" d="M107.979,34.5h-.2a4.377,4.377,0,0,0-3.479,4.6c0,2.359,1.959,1.36,1.959,1.36a2.924,2.924,0,0,1,1.519-.84h.16a2.924,2.924,0,0,1,1.519.84s1.959,1.04,1.959-1.32A4.346,4.346,0,0,0,107.979,34.5Z" transform="translate(-62.595 -20.705)"/><path class="a" d="M124.05,30.413c-.8-.28-1.8.48-2.159,1.639s0,2.319.8,2.6,1.8-.48,2.159-1.639C125.209,31.812,124.849,30.653,124.05,30.413Z" transform="translate(-73.067 -18.217)"/><path class="a" d="M151.639,72.16l-.12-.16L148.2,75.239l.08.08.84.88c.56.56,1.759.28,2.639-.6.92-.88,1.2-2.079.64-2.639Z" transform="translate(-88.941 -43.21)"/><path class="a" d="M104.512,24.153a12.918,12.918,0,1,0-3.359,3.159l6.2,6.2,3.319-3.239ZM94.156,25.832a9.2,9.2,0,1,1,9.2-9.2A9.2,9.2,0,0,1,94.156,25.832Z" transform="translate(-48.851 -2.281)"/><path class="a" d="M16.354,2.34A13.659,13.659,0,0,0,10.876,1.3H0V23.892H7.637V18.334h3.279a13.325,13.325,0,0,0,5.438-1.04,8.028,8.028,0,0,0,3.6-2.959,8.067,8.067,0,0,0,1.24-4.518A8.4,8.4,0,0,0,19.953,5.3,8.481,8.481,0,0,0,16.354,2.34Zm-3.639,9.437a3.285,3.285,0,0,1-2.319.68H7.637V7.178H10.4a3.489,3.489,0,0,1,2.319.68,2.5,2.5,0,0,1,.76,1.959A2.5,2.5,0,0,1,12.716,11.776Z" transform="translate(0 -0.78)"/><path class="a" d="M224.834,1.3H207.2V23.892h18.793V18.174H214.677v-3h9.557V9.7h-9.557V7.058h16.714l.04.16V23.892h7.637V7.218h6.6V1.3H224.834Z" transform="translate(-124.349 -0.78)"/><path class="a" d="M322.873,12.156a7.432,7.432,0,0,0-3.079-2.039A30.95,30.95,0,0,0,315.436,9a20.957,20.957,0,0,1-2.879-.72c-.6-.2-.88-.56-.88-1,0-.96.96-1.439,2.919-1.439a13.82,13.82,0,0,1,6.278,1.679L323.153,2A15.959,15.959,0,0,0,319.195.52,18.641,18.641,0,0,0,314.676,0a14.426,14.426,0,0,0-5.758,1,7.915,7.915,0,0,0-3.559,2.759,6.647,6.647,0,0,0-1.2,3.879,5.667,5.667,0,0,0,1.28,3.879,7.807,7.807,0,0,0,3.039,2.079,34.88,34.88,0,0,0,4.358,1.16,19.213,19.213,0,0,1,2.919.76c.6.24.88.6.88,1.08a1.008,1.008,0,0,1-.68.92,5.972,5.972,0,0,1-2.279.32,14.613,14.613,0,0,1-3.839-.56,13.927,13.927,0,0,1-3.6-1.519L303.8,21.313a14.169,14.169,0,0,0,4.358,1.679,24.741,24.741,0,0,0,5.478.64,14.426,14.426,0,0,0,5.758-1,7.915,7.915,0,0,0,3.559-2.759,6.647,6.647,0,0,0,1.2-3.879A5.2,5.2,0,0,0,322.873,12.156Z" transform="translate(-182.322)"/><path class="a" d="M64.537,14.4A5.584,5.584,0,0,0,62.1,16.319V14.04H57.3V31.434h5.038V23.2a4.838,4.838,0,0,1,1.24-3.639,3.733,3.733,0,0,1,1.959-1.04A14.53,14.53,0,0,1,67.9,13.8,8.546,8.546,0,0,0,64.537,14.4Z" transform="translate(-34.388 -8.282)"/><path class="a" d="M164.354,2.34a13.46,13.46,0,0,0-5.438-1.04H148V9.937a14.743,14.743,0,0,1,.92,5.158,14.579,14.579,0,0,1-.92,5.158v3.6h7.637V18.334h3.279a13.325,13.325,0,0,0,5.438-1.04,7.829,7.829,0,0,0,4.878-7.477,7.783,7.783,0,0,0-1.28-4.518A8.481,8.481,0,0,0,164.354,2.34Zm-3.639,9.437a3.285,3.285,0,0,1-2.319.68h-2.759V7.178H158.4a3.489,3.489,0,0,1,2.319.68,2.5,2.5,0,0,1,.76,1.959A2.5,2.5,0,0,1,160.716,11.776Z" transform="translate(-88.821 -0.78)"/></svg>