<svg xmlns="http://www.w3.org/2000/svg" width="192.179" height="183" viewBox="0 0 192.179 183"><defs><style>.a,.d{fill:#84b6a3;}.b,.c{fill:none;}.b{stroke:#84b6a3;stroke-dasharray:3 1;}.c{stroke:#8dbfac;}.d{font-size:8px;font-family:Montserrat-Medium, Montserrat;font-weight:500;}</style></defs><g transform="translate(38 -929)"><path class="a" d="M38.983,47.3c-.032,0-.064-.032-.1-.032a6.586,6.586,0,0,0-2.108-1.15l-.734-.224a.117.117,0,0,1-.1-.032.241.241,0,0,0-.128-.032h0a.031.031,0,0,0-.032.032,15.468,15.468,0,0,1-.1-1.692,17.011,17.011,0,0,0,6.355-5.333,6.735,6.735,0,0,0,.575-2.523h.064c.575-.032,2.3-2.235,3.193-3.608a8.2,8.2,0,0,0,.543-6.419c-.415-1.054-1.118-.894-1.692-.479a14.7,14.7,0,0,0,.99-5.269,13.5,13.5,0,0,0-.575-3.96.111.111,0,0,0,.064-.032c.224-.415.894.766.894.766a4.7,4.7,0,0,0-.383-1.884,3.027,3.027,0,0,0-1.469-1.6l.224-.224c.224-.224.99.224.99.224a4.818,4.818,0,0,0-.862-1.245,2.673,2.673,0,0,0-2.267-1.15s.415-3.1-1.213-5.077c0,0,.351,1.15-.224,1.629,0,0-.671-2.778-1.916-3.64,0,0,.511,1.373,0,1.98,0,0-.8-3.449-2.906-4.279,0,0,1.373,2.81,0,3.353,0,0-.287-4.726-4.726-5.141,0,0,1.629,2.427,1.118,3.257,0,0-2.65-5.141-6.961-2.81,0,0,2.587.511,2.491,2.108,0,0-3.257-2.2-5.556-.415,0,0,3.9,1.245,3.736,2.714,0,0-3.736-1.565-6.035.671,0,0,2.587-.128,2.81,1.405,0,0-3.672-.319-5.014,1.98a2.414,2.414,0,0,1,1.82.734s-2.81,1.373-3.034,3.161c0,0,1.15-.83,1.756,0a.7.7,0,0,0,.287.224,13.931,13.931,0,0,0-2.044,7.281,15.174,15.174,0,0,0,.766,4.662c-.511-.192-1.022-.1-1.373.734a8.286,8.286,0,0,0,.639,6.674c.894,1.373,2.619,3.481,3.321,3.768a6.484,6.484,0,0,0,.575,2.459,16.933,16.933,0,0,0,5.972,5.141c-.032.575-.064,1.213-.128,1.852A7.784,7.784,0,0,0,23.432,47.3a4.688,4.688,0,0,0-.607.16c-.255.064-1.533.319-3.129.671l-.766.16c-.894.192-1.852.415-2.746.639l-.575.128h0c-1.15.287-2.14.575-2.714.766a10.165,10.165,0,0,0-1.309.8c-.064.064-.16.1-.224.16A8.058,8.058,0,0,0,9.8,52.343C7.88,54.77,5.773,59.5,5.07,68.693,4.431,76.964,1.4,96.539.7,103.724a3.508,3.508,0,0,0,.511.192L.919,105.64a1.263,1.263,0,0,0,.224.16c-.351,1.788-.958,4.535-.8,5.684A12.231,12.231,0,0,0,1.685,115c.383.926,2.235,2.331,2.682,2.81a1.365,1.365,0,0,0,1.15.351c.447.575,1.5.383,1.5.383.287.415,1.6,1.405,2.171,1.086.543-.319-.447-2.555-.926-3.481s-1.054-6.1-.8-5.972a22.1,22.1,0,0,1,1.756,2.267c.447.575,2.3,1.15,1.629-.064a32.452,32.452,0,0,1-1.756-4.407l-.383-.958h.16l.287-1.692H9.7s2.363-17.5,3.992-28.484l.1.1c.16,2.459.255,4.822.192,6.387-.255,4.375-1.788,22.96-1.788,22.96s1.437.639,3.385,1.309c.383,10.985.926,25.036,1.533,34.967C18.227,161.2,18.45,173.53,18.45,173.53a.247.247,0,0,1,.1.032c-.351,1.054-1.692,3.417-6.993,5.205,0,0-.862,1.086.99,1.277a21.645,21.645,0,0,0,7.5-.926c3-.8,3.96-1.277,5.3-1.565a24.125,24.125,0,0,0-.479-4.407,1.557,1.557,0,0,0,.224-.1c.128-2.108.224-4.183.351-6.291.287-4.95.607-9.9.894-14.817.383-5.812.766-11.592,1.182-17.4.351-4.662.7-9.324,1.213-13.987.192-1.852.224-3.8,1.277-5.461a2.323,2.323,0,0,1,1.948-1.277,1.65,1.65,0,0,1,1.182.7,5.839,5.839,0,0,1,.671,1.245,84.585,84.585,0,0,1,2.874,10.091c.926,3.545,1.788,7.121,2.587,10.7a84.274,84.274,0,0,1,1.533,8.4c.958,8.207,5.109,28.133,5.237,28.8a21.988,21.988,0,0,0,.064,4.758c1.373.1,2.363.415,5.461.83a23,23,0,0,0,7.536-.1c1.788-.415.8-1.405.8-1.405-5.109-.99-6.9-2.938-7.5-3.992.1-.032.16-.032.255-.064,0,0-3.736-54.7-4.535-66.613,1.309-.479,2.171-.894,2.171-.894S48.755,87.693,48.5,83.318a60.79,60.79,0,0,1,.224-6.866c1.661,10.953,4.056,28.868,4.056,28.868h.543l.287,1.692h.16a5.994,5.994,0,0,0-.383.958,34.215,34.215,0,0,1-1.756,4.407c-.671,1.213,1.182.639,1.629.064a22.1,22.1,0,0,1,1.756-2.267c.255-.128-.319,5.077-.8,5.972-.479.926-1.469,3.161-.926,3.481s1.884-.671,2.171-1.086c0,0,1.022.192,1.5-.383a1.365,1.365,0,0,0,1.15-.351c.447-.479,2.3-1.884,2.682-2.81a11.862,11.862,0,0,0,1.341-3.513c.192-1.15-.447-3.9-.8-5.684a1.264,1.264,0,0,0,.224-.16l-.287-1.724c.319-.128.511-.192.511-.192-.7-7.185-3.768-26.76-4.375-35.031-.7-9.2-2.81-13.923-4.726-16.35a8.058,8.058,0,0,0-1.565-1.565.971.971,0,0,0-.224-.16,10.166,10.166,0,0,0-1.309-.8c-1.948-.734-8.239-2.044-9.676-2.363m3.034-18.2c.032-.032.064-.1.1-.128l-.1.287ZM26.433,45.829Z" transform="translate(-7.939 928.899)"/><path class="a" d="M45.16,27.666c1.786.357,11.011.617,14,.942s5.327-.26,8.348.292,3.67,1.137,4.288.974,2.761-3.118,3.281-3.508,2.436-.552,1.884,1.494-2.046,4.06-1.169,5.554,3.768,6.691,4.028,7.8.032,5.067.585,6.691a85.555,85.555,0,0,0,3.541,8.185c1.169,2.274,2.111,3.9,3.183,4.515s1.137,1.039,1.2,1.332.032.78.195.909A22.267,22.267,0,0,1,90.6,64.858c.455.585.227,1.267.422,1.559a2.115,2.115,0,0,1,.292,1.689,18.541,18.541,0,0,0-.065,3.378c.032,1.364.552,5.23.617,5.814a7.815,7.815,0,0,0,.39,2.111,2.356,2.356,0,0,1-.162,1.819c-.227.487-.455.65-.487.909s-.325,1.072-1.007,1.137a2.065,2.065,0,0,1-1.137-.195s-.26.39-1.624.227a1.875,1.875,0,0,1-1.494-2.761c.682-1.137,1.462-1.169,1.851-1.819a6.523,6.523,0,0,0,.422-2.858c-.065-.52-.13-1.039-.227-1.039s.032,1.754-.487,2.306a2.374,2.374,0,0,1-1.494.845c-.455.032-1.007-.357-1.2-.357s-1.007.39-1.624-.13-.552-2.436.325-2.826,1.4-.325,1.657-.552a7.434,7.434,0,0,0,.357-2.891,4.694,4.694,0,0,0-.357-2.371,5.187,5.187,0,0,1-.52-1.559c-.1-.26.032-.682-.26-1.072a16.542,16.542,0,0,0-2.6-2.7c-1.527-1.3-2.923-2.631-4.32-3.768s-4.677-3.411-5.944-5.035-2.956-4.9-5.2-6.5-4.385-2.469-5.879-2.371A123.362,123.362,0,0,0,47.6,49.071c-5.359,1.527-9.582,3.508-11.4,3.638s-2.339,0-2.534.1.1.942-.227,1.4A15.4,15.4,0,0,0,32.1,60.57c.1,2.7-.195,5.359-.13,6.789s-.032,3.443.065,4.677c.1,1.267.357,2.534.032,2.891s-.942-.26-1.2.032a15.206,15.206,0,0,0-1.429,4.612c-.357,2.079-.812,3.118-2.339,3.183s-1.916-.292-1.916-.292a2.6,2.6,0,0,1-1.754.13c-1.169-.227-.974-1.332-.942-1.754s.195-1.007.1-1.039c-.1-.065-.39.162-.812-.292-.422-.422.162-1.592.585-2.046.39-.455.325-.812,1.332-.845s1.137-.1,1.624-.909a16.566,16.566,0,0,0,1.234-4.255c.065-.78-.422-2.241-.455-3.411s-.13-3.183-.162-5.132-.325-3.8-.65-6.626-1.169-7.113-1.949-8.218-2.046-2.014-2.371-3.281a21.855,21.855,0,0,1-1.007-6.2,46.19,46.19,0,0,0,.13-6.139c-.227-1.332-1.527-4.612-2.241-6.756s-1.981-5.912-2.339-6.107-1.4.292-2.144.422a9.271,9.271,0,0,0-2.274.487,21.244,21.244,0,0,1-3.248.552,6.507,6.507,0,0,1-3.248.195,5.415,5.415,0,0,1-2.371-1.3A10.249,10.249,0,0,1,.4,18.246c-.325-.487-.552-.78.39-1.267S3.1,15.29,4.136,14.771a7.464,7.464,0,0,0,2.7-1.786c.39-.65.487-1.332.78-1.819A10.885,10.885,0,0,1,9.95,9.151c.812-.52,2.046-1.819,2.566-2.111.487-.292,1.137-.617,1.234-.974s.422-2.566.552-3.573.422-2.761.715-2.793,1.2,2.306,2.144,3.573c.974,1.3,2.144,2.4,2.371,3.151a8.634,8.634,0,0,0,2.079,2.5,40.069,40.069,0,0,1,5.067,6.139c1.429,2.339,4.418,7.5,5.619,8.185s7.438,2.6,9.095,3.183A20.474,20.474,0,0,0,45.16,27.666Z" transform="translate(61.796 1025.301)"/><line class="b" x2="68" transform="translate(85.679 1047.5)"/><line class="b" y1="27" transform="translate(90.726 1020.5)"/><g transform="translate(-20.617 1027.859)"><line class="c" x1="28.874" transform="translate(0 80.641)"/><line class="c" x1="11" transform="translate(17.874 72.641)"/><line class="c" x1="11" transform="translate(17.874 64.1)"/><line class="c" x1="11" transform="translate(17.874 56.863)"/><line class="c" x1="11" transform="translate(17.874 48.592)"/><line class="c" x1="28.874" transform="translate(0 40.321)"/><line class="c" x1="11" transform="translate(17.874 32.05)"/><line class="c" x1="11" transform="translate(17.874 23.779)"/><line class="c" x1="11" transform="translate(17.874 16.542)"/><line class="c" x1="11" transform="translate(17.874 8)"/><line class="c" x1="28.874"/></g><text class="d" transform="translate(-24 1110)"><tspan x="-5.336" y="0">0</tspan></text><text class="d" transform="translate(-24 1071)"><tspan x="-9.928" y="0">50</tspan></text><text class="d" transform="translate(-24 1031)"><tspan x="-13.632" y="0">100</tspan></text><text class="d" transform="translate(96 1036)"><tspan x="0" y="0">Height</tspan><tspan x="0" y="8">at withers</tspan></text></g></svg>